<?xml version="1.0" encoding="UTF-8"?>
<svg version="1.1" xmlns="http://www.w3.org/2000/svg" width="16" height="16">
<path d="M0 0 C3.1875 -0.0625 3.1875 -0.0625 7 1 C10.52075778 5.22665229 12.46820302 9.45800513 12 15 C11 16 11 16 8.05859375 16.09765625 C6.86363281 16.08605469 5.66867187 16.07445313 4.4375 16.0625 C2.64119141 16.04896484 2.64119141 16.04896484 0.80859375 16.03515625 C-0.11824219 16.02355469 -1.04507812 16.01195313 -2 16 C-3.53995173 12.92009655 -3.22377524 10.41257239 -3 7 C-2.17748648 4.53245943 -1.14878622 2.34543853 0 0 Z " fill="#F8F7F7" transform="translate(4,0)"/>
<path d="M0 0 C3.1875 -0.0625 3.1875 -0.0625 7 1 C10.52075778 5.22665229 12.46820302 9.45800513 12 15 C11 16 11 16 8.05859375 16.09765625 C6.86363281 16.08605469 5.66867187 16.07445313 4.4375 16.0625 C2.64119141 16.04896484 2.64119141 16.04896484 0.80859375 16.03515625 C-0.11824219 16.02355469 -1.04507812 16.01195313 -2 16 C-3.53995173 12.92009655 -3.22377524 10.41257239 -3 7 C-2.17748648 4.53245943 -1.14878622 2.34543853 0 0 Z M1 2 C-1.60585556 5.90878334 -1.22321871 9.46121966 -1 14 C0.00836062 15.23267348 0.00836062 15.23267348 2.06640625 15.09765625 C2.89011719 15.08605469 3.71382813 15.07445312 4.5625 15.0625 C5.80193359 15.04896484 5.80193359 15.04896484 7.06640625 15.03515625 C7.70449219 15.02355469 8.34257812 15.01195312 9 15 C9.97861264 12.8949521 9.97861264 12.8949521 10 10 C8.72756591 7.03281532 7.24844847 4.32936949 5 2 C3.68 2 2.36 2 1 2 Z " fill="#8D6C6D" transform="translate(4,0)"/>
<path d="M0 0 C0.5625 1.9375 0.5625 1.9375 1 4 C0 5 0 5 -2.06640625 5.09765625 C-2.89011719 5.08605469 -3.71382812 5.07445312 -4.5625 5.0625 C-5.38878906 5.05347656 -6.21507812 5.04445313 -7.06640625 5.03515625 C-7.70449219 5.02355469 -8.34257812 5.01195312 -9 5 C-8.67 4.01 -8.34 3.02 -8 2 C-6.15234375 1.26953125 -6.15234375 1.26953125 -3.9375 0.8125 C-3.20402344 0.65394531 -2.47054688 0.49539063 -1.71484375 0.33203125 C-1.14894531 0.22246094 -0.58304688 0.11289063 0 0 Z " fill="#D2D1D1" transform="translate(13,10)"/>
</svg>
