<svg width="27" height="27" viewBox="0 0 27 27" fill="none" xmlns="http://www.w3.org/2000/svg">
<path d="M19.2967 16.9811H18.0771L17.6449 16.5643C19.21 14.7489 20.0702 12.4312 20.0685 10.0343C20.0685 8.04968 19.48 6.10966 18.3775 4.45953C17.2749 2.80941 15.7077 1.52329 13.8742 0.763818C12.0407 0.00434769 10.0231 -0.194364 8.07669 0.19281C6.13023 0.579985 4.34229 1.53566 2.93897 2.93897C1.53566 4.34229 0.579985 6.13023 0.19281 8.07669C-0.194364 10.0231 0.00434769 12.0407 0.763818 13.8742C1.52329 15.7077 2.80941 17.2749 4.45953 18.3775C6.10966 19.48 8.04968 20.0685 10.0343 20.0685C12.5197 20.0685 14.8044 19.1577 16.5643 17.6449L16.9811 18.0771V19.2967L24.6997 26.9999L26.9999 24.6997L19.2967 16.9811ZM10.0343 16.9811C6.19038 16.9811 3.08747 13.8782 3.08747 10.0343C3.08747 6.19038 6.19038 3.08747 10.0343 3.08747C13.8782 3.08747 16.9811 6.19038 16.9811 10.0343C16.9811 13.8782 13.8782 16.9811 10.0343 16.9811Z" fill="#9A9A9A"/>
</svg>
