<svg width="19" height="18" viewBox="0 0 19 18" fill="none" xmlns="http://www.w3.org/2000/svg">
<path d="M2.375 17.3032C1.74511 17.3032 1.14102 17.0529 0.695621 16.6075C0.250222 16.1622 0 15.5581 0 14.9282V11.5353C4.02261e-09 11.2654 0.107238 11.0065 0.298123 10.8156C0.489009 10.6247 0.747905 10.5175 1.01786 10.5175C1.28781 10.5175 1.54671 10.6247 1.73759 10.8156C1.92848 11.0065 2.03571 11.2654 2.03571 11.5353V14.9282C2.03571 15.1155 2.18771 15.2675 2.375 15.2675H16.625C16.715 15.2675 16.8013 15.2317 16.8649 15.1681C16.9285 15.1045 16.9643 15.0182 16.9643 14.9282V11.5353C16.9643 11.2654 17.0715 11.0065 17.2624 10.8156C17.4533 10.6247 17.7122 10.5175 17.9821 10.5175C18.2521 10.5175 18.511 10.6247 18.7019 10.8156C18.8928 11.0065 19 11.2654 19 11.5353V14.9282C19 15.5581 18.7498 16.1622 18.3044 16.6075C17.859 17.0529 17.2549 17.3032 16.625 17.3032H2.375Z" fill="#FCF8F8"/>
<path d="M14.6301 4.70895C14.7245 4.80341 14.7995 4.91555 14.8506 5.03896C14.9017 5.16238 14.928 5.29465 14.928 5.42824C14.928 5.56182 14.9017 5.6941 14.8506 5.81751C14.7995 5.94093 14.7245 6.05307 14.6301 6.14752C14.5356 6.24198 14.4235 6.31691 14.3001 6.36803C14.1767 6.41915 14.0444 6.44546 13.9108 6.44546C13.7772 6.44546 13.6449 6.41915 13.5215 6.36803C13.3981 6.31691 13.286 6.24198 13.1915 6.14752L10.5179 3.47531V11.1961C10.5179 11.466 10.4107 11.7249 10.2198 11.9158C10.0289 12.1067 9.77003 12.214 9.50008 12.214C9.23013 12.214 8.97123 12.1067 8.78035 11.9158C8.58946 11.7249 8.48222 11.466 8.48222 11.1961V3.47531L5.80865 6.14752C5.7142 6.24198 5.60206 6.31691 5.47864 6.36803C5.35523 6.41915 5.22295 6.44546 5.08937 6.44546C4.95578 6.44546 4.82351 6.41915 4.70009 6.36803C4.57668 6.31691 4.46454 6.24198 4.37008 6.14752C4.27562 6.05307 4.2007 5.94093 4.14958 5.81751C4.09846 5.6941 4.07214 5.56182 4.07214 5.42824C4.07214 5.29465 4.09846 5.16238 4.14958 5.03896C4.2007 4.91555 4.27562 4.80341 4.37008 4.70895L8.7808 0.298238C8.87521 0.203694 8.98733 0.12869 9.11075 0.0775151C9.23417 0.0263406 9.36647 0 9.50008 0C9.63369 0 9.76599 0.0263406 9.88941 0.0775151C10.0128 0.12869 10.125 0.203694 10.2194 0.298238L14.6301 4.70895Z" fill="#FCF8F8"/>
</svg>
