<svg width="337" height="68" viewBox="0 0 337 68" fill="none" xmlns="http://www.w3.org/2000/svg">
<path fill-rule="evenodd" clip-rule="evenodd" d="M163.541 45.3025C162.787 45.7645 162.221 46.4781 161.942 47.3174C161.663 48.1567 161.689 49.0675 162.017 49.889C162.344 50.7105 162.952 51.3898 163.732 51.8069C164.511 52.224 165.414 52.3521 166.279 52.1685C167.144 51.9849 167.916 51.5014 168.459 50.8035C169.003 50.1055 169.282 49.2381 169.247 48.3544C169.213 47.4706 168.867 46.6275 168.271 45.9739C167.676 45.3203 166.868 44.8983 165.991 44.7825C165.944 44.6148 165.901 44.446 165.863 44.2762C165.692 43.504 165.558 42.7239 165.463 41.9387C165.359 41.1452 165.301 40.3464 165.288 39.5462C165.285 39.3265 165.291 39.1067 165.306 38.8875C165.786 38.75 166.269 38.625 166.75 38.5163C167.301 38.3913 167.629 39.0413 167.892 39.5687L168 39.78H182.686C182.972 39.2375 183.621 38.3725 184.25 38.5163C184.92 38.6688 185.594 38.85 186.261 39.0575L186.257 39.0588C186.255 39.0563 186.255 39.0562 186.257 39.0612C186.262 39.0787 186.29 39.1613 186.317 39.3363C186.349 39.5388 186.37 39.8013 186.38 40.1175C186.397 40.7475 186.361 41.5138 186.288 42.2862C186.213 43.0575 186.101 43.8037 185.976 44.3925C185.949 44.5238 185.921 44.6425 185.894 44.75H184.25C184.018 44.7501 183.79 44.8149 183.593 44.9369C183.396 45.059 183.236 45.2337 183.133 45.4413L181.883 47.9413C181.796 48.1147 181.75 48.306 181.75 48.5V51C181.75 51.3315 181.882 51.6495 182.116 51.8839C182.351 52.1183 182.668 52.25 183 52.25H185.5V49.75H184.25V48.795L185.022 47.25H188.478L189.25 48.795V49.75H188V52.25H190.5C190.832 52.25 191.149 52.1183 191.384 51.8839C191.618 51.6495 191.75 51.3315 191.75 51V48.5C191.75 48.306 191.704 48.1147 191.618 47.9413L190.368 45.4413C190.264 45.2337 190.104 45.059 189.907 44.9369C189.71 44.8149 189.482 44.7501 189.25 44.75H188.455C188.589 44.0838 188.7 43.3063 188.775 42.5263C188.857 41.6838 188.9 40.81 188.879 40.0475L188.877 40.0125C193.862 42.1187 198 45.5825 198 49.2125V56H153V49.2125C153 45.4225 157.513 41.8125 162.789 39.7412C162.803 40.5187 162.876 41.3975 162.983 42.2488C163.097 43.1675 163.254 44.0813 163.426 44.8338C163.464 44.995 163.501 45.1513 163.541 45.3025ZM165.5 49.7687C166.172 49.7687 166.75 49.2188 166.75 48.5C166.75 47.7825 166.172 47.2313 165.5 47.2313C164.828 47.2313 164.25 47.7812 164.25 48.5C164.25 49.2175 164.828 49.7687 165.5 49.7687ZM175.5 33.5C178.152 33.5 180.696 32.4464 182.571 30.5711C184.446 28.6957 185.5 26.1522 185.5 23.5C185.5 20.8478 184.446 18.3043 182.571 16.4289C180.696 14.5536 178.152 13.5 175.5 13.5C172.848 13.5 170.304 14.5536 168.429 16.4289C166.554 18.3043 165.5 20.8478 165.5 23.5C165.5 26.1522 166.554 28.6957 168.429 30.5711C170.304 32.4464 172.848 33.5 175.5 33.5ZM175.5 36C182.404 36 188 30.4037 188 23.5C188 16.5963 182.404 11 175.5 11C168.596 11 163 16.5963 163 23.5C163 30.4037 168.596 36 175.5 36Z" fill="#363636"/>
<path d="M309.5 55.5H319.5C319.5 58.25 317.25 60.5 314.5 60.5C311.75 60.5 309.5 58.25 309.5 55.5ZM337 50.5V53H292V50.5L297 45.5V30.5C297 22.75 302 16 309.5 13.75V13C309.5 10.25 311.75 8 314.5 8C317.25 8 319.5 10.25 319.5 13V13.75C327 16 332 22.75 332 30.5V45.5L337 50.5ZM327 30.5C327 23.5 321.5 18 314.5 18C307.5 18 302 23.5 302 30.5V48H327V30.5Z" fill="#363636"/>
<circle cx="34" cy="34" r="34" fill="#469597"/>
<path d="M34 34C31.25 34 28.8958 33.0208 26.9375 31.0625C24.9792 29.1042 24 26.75 24 24C24 21.25 24.9792 18.8958 26.9375 16.9375C28.8958 14.9792 31.25 14 34 14C36.75 14 39.1042 14.9792 41.0625 16.9375C43.0208 18.8958 44 21.25 44 24C44 26.75 43.0208 29.1042 41.0625 31.0625C39.1042 33.0208 36.75 34 34 34ZM14 54V47C14 45.5833 14.365 44.2817 15.095 43.095C15.825 41.9083 16.7933 41.0017 18 40.375C20.5833 39.0833 23.2083 38.115 25.875 37.47C28.5417 36.825 31.25 36.5017 34 36.5C36.75 36.5 39.4583 36.8233 42.125 37.47C44.7917 38.1167 47.4167 39.085 50 40.375C51.2083 41 52.1775 41.9067 52.9075 43.095C53.6375 44.2833 54.0017 45.585 54 47V54H14ZM19 49H49V47C49 46.5417 48.8858 46.125 48.6575 45.75C48.4292 45.375 48.1267 45.0833 47.75 44.875C45.5 43.75 43.2292 42.9067 40.9375 42.345C38.6458 41.7833 36.3333 41.5017 34 41.5C31.6667 41.5 29.3542 41.7817 27.0625 42.345C24.7708 42.9083 22.5 43.7517 20.25 44.875C19.875 45.0833 19.5725 45.375 19.3425 45.75C19.1125 46.125 18.9983 46.5417 19 47V49ZM34 29C35.375 29 36.5525 28.5108 37.5325 27.5325C38.5125 26.5542 39.0017 25.3767 39 24C39 22.625 38.5108 21.4483 37.5325 20.47C36.5542 19.4917 35.3767 19.0017 34 19C32.625 19 31.4483 19.49 30.47 20.47C29.4917 21.45 29.0017 22.6267 29 24C29 25.375 29.49 26.5525 30.47 27.5325C31.45 28.5125 32.6267 29.0017 34 29Z" fill="#FCFCFC"/>
</svg>
