<svg width="54" height="54" viewBox="0 0 54 54" fill="none" xmlns="http://www.w3.org/2000/svg">
<path d="M53.4089 25.8026L28.097 0.490701C27.7808 0.17641 27.3531 0 26.9073 0C26.4615 0 26.0338 0.17641 25.7177 0.490701L0.405762 25.8026C0.129311 26.1254 -0.0151456 26.5407 0.00125848 26.9654C0.0176625 27.39 0.193719 27.7929 0.494247 28.0934C0.794774 28.394 1.19764 28.57 1.62233 28.5864C2.04702 28.6028 2.46227 28.4584 2.78508 28.1819L26.8989 4.06812L51.0127 28.1988C51.3355 28.4752 51.7507 28.6197 52.1754 28.6033C52.6001 28.5869 53.003 28.4108 53.3035 28.1103C53.604 27.8098 53.7801 27.4069 53.7965 26.9822C53.8129 26.5575 53.6685 26.1423 53.392 25.8195L53.4089 25.8026Z" fill="white"/>
<path d="M43.7734 50.6251H35.3361V33.7505H18.4615V50.6251H10.0242V27.0007L6.64932 30.3756V50.6251C6.64932 51.5202 7.00489 52.3786 7.63781 53.0115C8.27073 53.6444 9.12915 54 10.0242 54H21.8365V37.1254H31.9612V54H43.7734C44.6685 54 45.5269 53.6444 46.1599 53.0115C46.7928 52.3786 47.1484 51.5202 47.1484 50.6251V29.9706L43.7734 26.5957V50.6251Z" fill="white"/>
</svg>
