<svg width="32" height="26" viewBox="0 0 32 26" fill="none" xmlns="http://www.w3.org/2000/svg">
<path d="M2.45726 9.91767L1.22863 11.1463L0 9.91767L1.22863 8.68904L2.45726 9.91767ZM32 23.8201C32 24.281 31.8169 24.7231 31.491 25.049C31.1651 25.3749 30.7231 25.5579 30.2622 25.5579C29.8013 25.5579 29.3593 25.3749 29.0334 25.049C28.7075 24.7231 28.5244 24.281 28.5244 23.8201H32ZM9.91767 19.8353L1.22863 11.1463L3.68589 8.68904L12.3749 17.3781L9.91767 19.8353ZM1.22863 8.68904L9.91767 0L12.3749 2.45726L3.68589 11.1463L1.22863 8.68904ZM2.45726 8.17986H19.8353V11.6555H2.45726V8.17986ZM32 20.3445V23.8201H28.5244V20.3445H32ZM19.8353 8.17986C23.0616 8.17986 26.1557 9.46149 28.4371 11.7428C30.7184 14.0241 32 17.1183 32 20.3445H28.5244C28.5244 18.04 27.6089 15.83 25.9794 14.2004C24.3499 12.5709 22.1398 11.6555 19.8353 11.6555V8.17986Z" fill="black"/>
</svg>
