<svg width="19" height="19" viewBox="0 0 19 19" fill="none" xmlns="http://www.w3.org/2000/svg">
<path d="M8.74528 6.57611H17.4325C16.9716 5.33548 16.2359 4.23911 15.2253 3.287C14.2148 2.33559 13.0629 1.69733 11.7694 1.37222L8.74528 6.57611ZM6.56028 8.68722L10.9461 1.16111C10.7526 1.12593 10.5119 1.09954 10.2241 1.08194C9.93489 1.06435 9.69352 1.05556 9.5 1.05556C8.33889 1.05556 7.25694 1.27546 6.25417 1.71528C5.25139 2.15509 4.36296 2.74444 3.58889 3.48333L6.56028 8.68722ZM1.31944 11.6111H7.315L3.01361 4.12511C2.39576 4.88652 1.91478 5.71619 1.57067 6.61411C1.22726 7.51204 1.05556 8.474 1.05556 9.5C1.05556 9.86944 1.07772 10.2259 1.12206 10.5693C1.16639 10.9127 1.23219 11.26 1.31944 11.6111ZM7.27067 17.6278L10.2832 12.4239H1.5675C2.02843 13.6645 2.77083 14.7609 3.79472 15.713C4.81861 16.6644 5.97726 17.3027 7.27067 17.6278ZM9.5 17.9444C10.6611 17.9444 11.7431 17.7245 12.7458 17.2847C13.7486 16.8449 14.637 16.2556 15.4111 15.5167L12.4397 10.3128L8.09506 17.7988C8.28857 17.8473 8.51833 17.8836 8.78433 17.9075C9.05033 17.9321 9.28889 17.9444 9.5 17.9444ZM15.9874 14.8749C16.5504 14.1536 17.0173 13.3239 17.3882 12.3859C17.759 11.4471 17.9444 10.4852 17.9444 9.5C17.9444 9.13056 17.9226 8.77448 17.879 8.43178C17.8354 8.08907 17.7692 7.74144 17.6806 7.38889H11.685L15.9874 14.8749ZM9.5 19C8.19252 19 6.96104 18.7502 5.80556 18.2506C4.65007 17.7509 3.64378 17.0719 2.78667 16.2133C1.92815 15.3569 1.24907 14.3506 0.749444 13.1944C0.249815 12.039 0 10.8075 0 9.5C0 8.189 0.249815 6.95646 0.749444 5.80239C1.24978 4.64831 1.92885 3.64272 2.78667 2.78561C3.64307 1.9285 4.64937 1.25013 5.80556 0.7505C6.96104 0.250167 8.19252 0 9.5 0C10.811 0 12.0435 0.249815 13.1976 0.749444C14.3517 1.24978 15.3573 1.92885 16.2144 2.78667C17.0715 3.64378 17.7499 4.64902 18.2495 5.80239C18.7498 6.95646 19 8.189 19 9.5C19 10.8075 18.7502 12.039 18.2506 13.1944C17.7509 14.3499 17.0719 15.3562 16.2133 16.2133C15.3562 17.0711 14.351 17.7502 13.1976 18.2506C12.0435 18.7502 10.811 19 9.5 19Z" fill="#FCF8F8"/>
</svg>
