<svg width="323" height="68" viewBox="0 0 323 68" fill="none" xmlns="http://www.w3.org/2000/svg">
<circle cx="161" cy="34" r="34" fill="#469597"/>
<path fill-rule="evenodd" clip-rule="evenodd" d="M148.541 45.3025C147.787 45.7645 147.221 46.4781 146.942 47.3174C146.663 48.1567 146.689 49.0675 147.017 49.889C147.344 50.7105 147.952 51.3898 148.732 51.8069C149.511 52.224 150.414 52.3521 151.279 52.1685C152.144 51.9849 152.916 51.5014 153.459 50.8035C154.003 50.1055 154.282 49.2381 154.247 48.3544C154.213 47.4706 153.867 46.6275 153.271 45.9739C152.676 45.3203 151.868 44.8983 150.991 44.7825C150.944 44.6148 150.901 44.446 150.863 44.2762C150.692 43.504 150.558 42.7239 150.463 41.9387C150.359 41.1452 150.301 40.3464 150.288 39.5462C150.285 39.3265 150.291 39.1067 150.306 38.8875C150.786 38.75 151.269 38.625 151.75 38.5163C152.301 38.3913 152.629 39.0412 152.892 39.5687L153 39.78H167.686C167.972 39.2375 168.621 38.3725 169.25 38.5163C169.92 38.6688 170.594 38.85 171.261 39.0575L171.257 39.0588C171.255 39.0562 171.255 39.0562 171.257 39.0612C171.263 39.0787 171.29 39.1613 171.317 39.3363C171.349 39.5387 171.37 39.8013 171.38 40.1175C171.397 40.7475 171.361 41.5138 171.288 42.2862C171.213 43.0575 171.101 43.8038 170.976 44.3925C170.949 44.5238 170.921 44.6425 170.894 44.75H169.25C169.018 44.7501 168.79 44.8149 168.593 44.9369C168.396 45.059 168.236 45.2337 168.133 45.4413L166.883 47.9413C166.796 48.1147 166.75 48.306 166.75 48.5V51C166.75 51.3315 166.882 51.6495 167.116 51.8839C167.351 52.1183 167.668 52.25 168 52.25H170.5V49.75H169.25V48.795L170.022 47.25H173.478L174.25 48.795V49.75H173V52.25H175.5C175.832 52.25 176.149 52.1183 176.384 51.8839C176.618 51.6495 176.75 51.3315 176.75 51V48.5C176.75 48.306 176.704 48.1147 176.618 47.9413L175.368 45.4413C175.264 45.2337 175.104 45.059 174.907 44.9369C174.71 44.8149 174.482 44.7501 174.25 44.75H173.455C173.589 44.0838 173.7 43.3063 173.775 42.5263C173.857 41.6838 173.9 40.81 173.879 40.0475L173.877 40.0125C178.862 42.1187 183 45.5825 183 49.2125V56H138V49.2125C138 45.4225 142.513 41.8125 147.789 39.7412C147.803 40.5187 147.876 41.3975 147.983 42.2488C148.097 43.1675 148.254 44.0813 148.426 44.8338C148.464 44.995 148.501 45.1513 148.541 45.3025ZM150.5 49.7687C151.172 49.7687 151.75 49.2188 151.75 48.5C151.75 47.7825 151.172 47.2313 150.5 47.2313C149.828 47.2313 149.25 47.7812 149.25 48.5C149.25 49.2175 149.828 49.7687 150.5 49.7687ZM160.5 33.5C163.152 33.5 165.696 32.4464 167.571 30.5711C169.446 28.6957 170.5 26.1522 170.5 23.5C170.5 20.8478 169.446 18.3043 167.571 16.4289C165.696 14.5536 163.152 13.5 160.5 13.5C157.848 13.5 155.304 14.5536 153.429 16.4289C151.554 18.3043 150.5 20.8478 150.5 23.5C150.5 26.1522 151.554 28.6957 153.429 30.5711C155.304 32.4464 157.848 33.5 160.5 33.5ZM160.5 36C167.404 36 173 30.4037 173 23.5C173 16.5963 167.404 11 160.5 11C153.596 11 148 16.5963 148 23.5C148 30.4037 153.596 36 160.5 36Z" fill="white"/>
<path d="M295.5 55.5H305.5C305.5 58.25 303.25 60.5 300.5 60.5C297.75 60.5 295.5 58.25 295.5 55.5ZM323 50.5V53H278V50.5L283 45.5V30.5C283 22.75 288 16 295.5 13.75V13C295.5 10.25 297.75 8 300.5 8C303.25 8 305.5 10.25 305.5 13V13.75C313 16 318 22.75 318 30.5V45.5L323 50.5ZM313 30.5C313 23.5 307.5 18 300.5 18C293.5 18 288 23.5 288 30.5V48H313V30.5Z" fill="#363636"/>
<path d="M20 34C17.25 34 14.8958 33.0208 12.9375 31.0625C10.9792 29.1042 10 26.75 10 24C10 21.25 10.9792 18.8958 12.9375 16.9375C14.8958 14.9792 17.25 14 20 14C22.75 14 25.1042 14.9792 27.0625 16.9375C29.0208 18.8958 30 21.25 30 24C30 26.75 29.0208 29.1042 27.0625 31.0625C25.1042 33.0208 22.75 34 20 34ZM0 54V47C0 45.5833 0.365001 44.2817 1.095 43.095C1.825 41.9083 2.79333 41.0017 4 40.375C6.58333 39.0833 9.20833 38.115 11.875 37.47C14.5417 36.825 17.25 36.5017 20 36.5C22.75 36.5 25.4583 36.8233 28.125 37.47C30.7917 38.1167 33.4167 39.085 36 40.375C37.2083 41 38.1775 41.9067 38.9075 43.095C39.6375 44.2833 40.0017 45.585 40 47V54H0ZM5 49H35V47C35 46.5417 34.8858 46.125 34.6575 45.75C34.4292 45.375 34.1267 45.0833 33.75 44.875C31.5 43.75 29.2292 42.9067 26.9375 42.345C24.6458 41.7833 22.3333 41.5017 20 41.5C17.6667 41.5 15.3542 41.7817 13.0625 42.345C10.7708 42.9083 8.5 43.7517 6.25 44.875C5.875 45.0833 5.5725 45.375 5.3425 45.75C5.1125 46.125 4.99833 46.5417 5 47V49ZM20 29C21.375 29 22.5525 28.5108 23.5325 27.5325C24.5125 26.5542 25.0017 25.3767 25 24C25 22.625 24.5108 21.4483 23.5325 20.47C22.5542 19.4917 21.3767 19.0017 20 19C18.625 19 17.4483 19.49 16.47 20.47C15.4917 21.45 15.0017 22.6267 15 24C15 25.375 15.49 26.5525 16.47 27.5325C17.45 28.5125 18.6267 29.0017 20 29Z" fill="#363636"/>
</svg>
