<?xml version="1.0" standalone="no"?>
<!DOCTYPE svg PUBLIC "-//W3C//DTD SVG 20010904//EN"
 "http://www.w3.org/TR/2001/REC-SVG-20010904/DTD/svg10.dtd">
<svg version="1.0" xmlns="http://www.w3.org/2000/svg"
 width="89.000000pt" height="89.000000pt" viewBox="0 0 89.000000 89.000000"
 preserveAspectRatio="xMidYMid meet">

<g transform="translate(0.000000,89.000000) scale(0.100000,-0.100000)"
fill="#000000" stroke="none">
<path d="M345 830 c-38 -14 -58 -50 -81 -145 -44 -183 -57 -289 -51 -419 6
-136 21 -191 61 -221 24 -17 41 -20 120 -18 137 3 214 18 261 51 36 25 40 33
43 75 8 115 -126 498 -215 614 -38 50 -99 77 -138 63z m93 -54 c20 -19 50 -61
65 -93 38 -83 136 -363 160 -462 l21 -84 -32 -28 c-43 -38 -88 -50 -219 -56
-128 -6 -154 3 -179 62 -29 71 -10 438 31 582 19 64 58 113 91 113 13 0 41
-15 62 -34z"/>
<path d="M517 202 c-32 -17 -69 -26 -113 -28 -75 -3 -85 -8 -54 -24 41 -22
211 21 224 56 8 22 -7 21 -57 -4z"/>
</g>
</svg>
