<svg width="45" height="45" viewBox="0 0 45 45" fill="none" xmlns="http://www.w3.org/2000/svg">
<path fill-rule="evenodd" clip-rule="evenodd" d="M10.5412 34.3025C9.7871 34.7645 9.22051 35.4781 8.94155 36.3174C8.6626 37.1567 8.68924 38.0675 9.01678 38.889C9.34432 39.7105 9.95166 40.3898 10.7315 40.8069C11.5114 41.224 12.4136 41.3521 13.2787 41.1685C14.1438 40.9849 14.9162 40.5014 15.4594 39.8035C16.0026 39.1055 16.2817 38.2381 16.2473 37.3544C16.2129 36.4706 15.8673 35.6275 15.2715 34.9739C14.6757 34.3203 13.868 33.8983 12.9912 33.7825C12.9444 33.6148 12.9015 33.446 12.8625 33.2762C12.6916 32.504 12.5581 31.7239 12.4625 30.9387C12.3592 30.1452 12.3008 29.3464 12.2875 28.5462C12.2849 28.3265 12.2912 28.1067 12.3063 27.8875C12.7863 27.75 13.2688 27.625 13.75 27.5163C14.3013 27.3913 14.6287 28.0413 14.8925 28.5687L15 28.78H29.6863C29.9725 28.2375 30.6213 27.3725 31.25 27.5163C31.92 27.6688 32.5938 27.85 33.2613 28.0575L33.2575 28.0588C33.255 28.0563 33.255 28.0562 33.2575 28.0612C33.2625 28.0787 33.29 28.1613 33.3175 28.3363C33.3488 28.5388 33.37 28.8013 33.38 29.1175C33.3975 29.7475 33.3613 30.5138 33.2875 31.2862C33.2125 32.0575 33.1012 32.8037 32.9762 33.3925C32.9487 33.5238 32.9212 33.6425 32.8937 33.75H31.25C31.0179 33.7501 30.7905 33.8149 30.5931 33.9369C30.3957 34.059 30.2362 34.2337 30.1325 34.4413L28.8825 36.9413C28.7955 37.1147 28.7502 37.306 28.75 37.5V40C28.75 40.3315 28.8817 40.6495 29.1161 40.8839C29.3505 41.1183 29.6685 41.25 30 41.25H32.5V38.75H31.25V37.795L32.0225 36.25H35.4775L36.25 37.795V38.75H35V41.25H37.5C37.8315 41.25 38.1495 41.1183 38.3839 40.8839C38.6183 40.6495 38.75 40.3315 38.75 40V37.5C38.7498 37.306 38.7045 37.1147 38.6175 36.9413L37.3675 34.4413C37.2638 34.2337 37.1043 34.059 36.9069 33.9369C36.7095 33.8149 36.4821 33.7501 36.25 33.75H35.455C35.5887 33.0838 35.7 32.3063 35.775 31.5263C35.8575 30.6838 35.9 29.81 35.8787 29.0475L35.8775 29.0125C40.8625 31.1187 45 34.5825 45 38.2125V45H0V38.2125C0 34.4225 4.5125 30.8125 9.78875 28.7412C9.8025 29.5187 9.87625 30.3975 9.9825 31.2488C10.0975 32.1675 10.2537 33.0813 10.4262 33.8338C10.4637 33.995 10.5012 34.1513 10.5412 34.3025ZM12.5 38.7687C13.1725 38.7687 13.75 38.2188 13.75 37.5C13.75 36.7825 13.1725 36.2313 12.5 36.2313C11.8275 36.2313 11.25 36.7812 11.25 37.5C11.25 38.2175 11.8275 38.7687 12.5 38.7687ZM22.5 22.5C25.1522 22.5 27.6957 21.4464 29.5711 19.5711C31.4464 17.6957 32.5 15.1522 32.5 12.5C32.5 9.84783 31.4464 7.3043 29.5711 5.42893C27.6957 3.55357 25.1522 2.5 22.5 2.5C19.8478 2.5 17.3043 3.55357 15.4289 5.42893C13.5536 7.3043 12.5 9.84783 12.5 12.5C12.5 15.1522 13.5536 17.6957 15.4289 19.5711C17.3043 21.4464 19.8478 22.5 22.5 22.5ZM22.5 25C29.4037 25 35 19.4037 35 12.5C35 5.59625 29.4037 0 22.5 0C15.5963 0 10 5.59625 10 12.5C10 19.4037 15.5963 25 22.5 25Z" fill="#363636"/>
</svg>
